<svg xmlns="http://www.w3.org/2000/svg" xmlns:xlink="http://www.w3.org/1999/xlink" id="Layer_1" x="0" y="0" version="1.1" viewBox="0 0 18 18" xml:space="preserve" style="enable-background:new 0 0 18 18"><g><path style="fill:#e50707" d="M6.758,15.764c0-0.611,0.22-1.137,0.659-1.576s0.969-0.659,1.589-0.659 c0.611,0,1.137,0.22,1.576,0.659s0.659,0.965,0.659,1.576c0,0.62-0.22,1.147-0.659,1.583C10.143,17.782,9.617,18,9.006,18 c-0.62,0-1.149-0.218-1.589-0.653C6.978,16.912,6.758,16.384,6.758,15.764z M11.142,2.776c0,1.173-0.199,2.908-0.597,5.207 c-0.398,2.299-0.672,3.622-0.823,3.969c-0.151,0.347-0.389,0.521-0.716,0.521c-0.352,0-0.59-0.144-0.716-0.433 c-0.126-0.289-0.4-1.522-0.823-3.699C7.045,6.163,6.833,4.308,6.833,2.776C6.833,0.925,7.557,0,9.006,0 C10.43,0,11.142,0.925,11.142,2.776z"/></g></svg>