<svg xmlns="http://www.w3.org/2000/svg" xmlns:xlink="http://www.w3.org/1999/xlink" x="0" y="0" enable-background="new 0 0 16 16" version="1.1" viewBox="0 0 16 16" xml:space="preserve"><g id="Layer_1" display="none"><g display="inline"><path fill="#57585A" d="M3,15.5c-0.7,0.7-1.8,0.7-2.5,0l0,0c-0.7-0.7-0.7-1.8,0-2.5L13,0.5c0.7-0.7,1.8-0.7,2.5,0l0,0 c0.7,0.7,0.7,1.8,0,2.5L3,15.5z"/><path fill="#57585A" d="M12.8,15.4c0.7,0.7,1.8,0.7,2.5,0l0,0c0.7-0.7,0.7-1.8,0-2.5L3.1,0.6c-0.7-0.7-1.8-0.7-2.5,0l0,0 c-0.7,0.7-0.7,1.8,0,2.5L12.8,15.4z"/></g></g><g id="Layer_2"><g><path fill="#0099A9" d="M3,15.5c-0.7,0.7-1.8,0.7-2.5,0l0,0c-0.7-0.7-0.7-1.8,0-2.5L13,0.5c0.7-0.7,1.8-0.7,2.5,0l0,0 c0.7,0.7,0.7,1.8,0,2.5L3,15.5z"/><path fill="#0099A9" d="M12.8,15.4c0.7,0.7,1.8,0.7,2.5,0l0,0c0.7-0.7,0.7-1.8,0-2.5L3.1,0.6c-0.7-0.7-1.8-0.7-2.5,0l0,0 c-0.7,0.7-0.7,1.8,0,2.5L12.8,15.4z"/></g></g></svg>