<svg xmlns="http://www.w3.org/2000/svg" xmlns:xlink="http://www.w3.org/1999/xlink" id="Layer_1" x="0" y="0" enable-background="new 0 0 48 48" version="1.1" viewBox="0 0 48 48" xml:space="preserve"><g><path fill="#FF7900" d="M47.3,41.9l-6.9-13.2c-1.7-3.2-4.5-8.4-6.3-11.6L27.2,4.2c-1.7-3.2-4.5-3.2-6.3,0L14,17.1 c-1.7,3.2-4.5,8.5-6.3,11.7L0.8,41.9C-0.9,45.1,0.6,48,4.3,48h13.2c3.6,0,9.6,0,13.2,0h13.2C47.5,48,49,45.1,47.3,41.9z"/></g><g><path fill="#FFF" d="M20.6,17h6.6l-1,16.4h-4.5L20.6,17z M20.6,35.4h6.6v5.8h-6.6V35.4z"/></g></svg>