<svg xmlns="http://www.w3.org/2000/svg" xmlns:xlink="http://www.w3.org/1999/xlink" id="Layer_1" x="0" y="0" enable-background="new 0 0 32 32" version="1.1" viewBox="0 0 32 32" xml:space="preserve"><g><g><circle cx="16" cy="16" r="14.4" fill="#FFF"/><path fill="#57585A" d="M16,32C7.2,32,0,24.8,0,16S7.2,0,16,0c8.8,0,16,7.2,16,16S24.8,32,16,32z M16,3.2C8.9,3.2,3.2,8.9,3.2,16 c0,7.1,5.7,12.8,12.8,12.8S28.8,23.1,28.8,16C28.8,8.9,23.1,3.2,16,3.2z"/></g><g><g><rect width="10.1" height="4.1" x="6.6" y="16.6" fill="#44A12A" transform="matrix(0.7071 0.7071 -0.7071 0.7071 16.6087 -2.794)"/></g><g><rect width="16.1" height="4.3" x="10.2" y="14.1" fill="#44A12A" transform="matrix(0.7071 -0.7071 0.7071 0.7071 -6.1391 17.6222)"/></g></g></g></svg>