<svg xmlns="http://www.w3.org/2000/svg" xmlns:xlink="http://www.w3.org/1999/xlink" id="Layer_1" x="0" y="0" version="1.1" viewBox="0 0 10 10" xml:space="preserve" style="enable-background:new 0 0 10 10"><style type="text/css">.st0{fill:#fff}</style><path d="M6.6,5l3.1-3.1c0.4-0.4,0.4-1.1,0-1.6c-0.4-0.4-1.1-0.4-1.6,0L5,3.4L1.9,0.4c-0.4-0.4-1.1-0.4-1.6,0	c-0.4,0.4-0.4,1.1,0,1.6L3.4,5L0.3,8.1c-0.4,0.4-0.4,1.1,0,1.6c0.4,0.4,1.1,0.4,1.6,0L5,6.6l3,3c0.4,0.4,1.1,0.4,1.6,0	C10,9.2,10,8.5,9.6,8L6.6,5z" class="st0"/></svg>