<svg xmlns="http://www.w3.org/2000/svg" xmlns:xlink="http://www.w3.org/1999/xlink" id="Layer_2" x="0" y="0" version="1.1" viewBox="0 0 16 16" xml:space="preserve" style="enable-background:new 0 0 16 16"><style type="text/css">.st0{fill:#fff}</style><g><path d="M12.6,0c0.1,0.1,0.3,0.2,0.4,0.3c0.9,0.9,1.8,1.7,2.6,2.6c0.4,0.4,0.4,0.8,0,1.2c-1.1,1.1-2.3,2.3-3.4,3.4 c-1.9,1.9-3.9,3.9-5.8,5.8c-0.1,0.1-0.1,0.1-0.1,0.2C5,12.3,3.7,11,2.5,9.7c0,0,0.1-0.1,0.2-0.2c3-3,6.1-6.1,9.1-9.1 c0.2-0.2,0.4-0.3,0.6-0.4C12.4,0,12.5,0,12.6,0z" class="st0"/><path d="M1.3,10.6c1.3,1.3,2.7,2.7,4,4C3.6,15.1,1.8,15.5,0,16C0.5,14.2,0.9,12.4,1.3,10.6z" class="st0"/></g></svg>