<svg xmlns="http://www.w3.org/2000/svg" xmlns:xlink="http://www.w3.org/1999/xlink" id="Layer_1" x="0" y="0" version="1.1" viewBox="0 0 18 15" xml:space="preserve" style="enable-background:new 0 0 18 15"><style type="text/css">.st0{fill:#b9b9b9}.st1{fill:#fff}</style><g><g><path d="M10.8,0.3c-0.1-0.1-0.2-0.2-0.4-0.3c-0.1,0-0.2,0-0.2,0c-0.2,0.1-0.4,0.2-0.5,0.4c-2.5,2.5-5,5-7.6,7.5 c0,0-0.1,0.1-0.1,0.1c0.4,0.4,0.9,0.9,1.3,1.3l8.3-8.2C11.4,0.8,11.1,0.5,10.8,0.3z" class="st0"/><path d="M1.1,8.7c-0.4,1.5-0.7,2.9-1.1,4.4c0.7-0.2,1.4-0.3,2.1-0.5l0.7-2.2C2.2,9.8,1.7,9.3,1.1,8.7z" class="st0"/></g><g><path d="M14.8,0c0.1,0.1,0.3,0.2,0.4,0.3c0.8,0.8,1.7,1.6,2.5,2.5c0.4,0.4,0.4,0.7,0,1.1C16.6,5,15.5,6,14.5,7.1 c-1.8,1.8-3.7,3.6-5.5,5.4c-0.1,0.1-0.1,0.1-0.1,0.2c-1.2-1.2-2.4-2.4-3.7-3.6c0,0,0.1-0.1,0.1-0.1c2.9-2.9,5.8-5.7,8.6-8.5 c0.2-0.2,0.4-0.3,0.6-0.4C14.6,0,14.7,0,14.8,0z" class="st1"/><path d="M4.1,10c1.3,1.3,2.5,2.5,3.8,3.8c-1.7,0.4-3.4,0.8-5.1,1.3C3.3,13.3,3.7,11.6,4.1,10z" class="st1"/></g></g></svg>