<svg xmlns="http://www.w3.org/2000/svg" xmlns:xlink="http://www.w3.org/1999/xlink" id="Layer_2" x="0" y="0" version="1.1" viewBox="0 0 16 14" xml:space="preserve" style="enable-background:new 0 0 16 14"><style type="text/css">.st0{fill:#fff}</style><g><path d="M15.1,3.1H0.9C0.4,3.1,0,3.5,0,4v9.1C0,13.6,0.4,14,0.9,14h14.2c0.5,0,0.9-0.4,0.9-0.9V4 C16,3.5,15.6,3.1,15.1,3.1z" class="st0"/><path d="M6.1,2.5c0,0,0-0.6,0-0.6V0.5C6.1,0.2,5.9,0,5.6,0H3C2.7,0,2.4,0.2,2.4,0.5v1.3c0,0,0,0.6,0,0.6H6.1z" class="st0"/><path d="M13.5,2.5c0,0,0-0.6,0-0.6V0.5C13.5,0.2,13.3,0,13,0h-2.6C10,0,9.8,0.2,9.8,0.5v1.3c0,0,0,0.6,0,0.6H13.5z" class="st0"/></g></svg>