<svg xmlns="http://www.w3.org/2000/svg" xmlns:xlink="http://www.w3.org/1999/xlink" id="Layer_1" x="0" y="0" version="1.1" viewBox="0 0 14 26" xml:space="preserve" style="enable-background:new 0 0 14 26"><style type="text/css">.st0{fill:#333}</style><path d="M13.8,12.4C13.8,12.4,13.7,12.4,13.8,12.4L1.4,0.2c-0.3-0.3-0.8-0.3-1.2,0c-0.3,0.3-0.3,0.8,0,1.1L12,13	L0.2,24.6c-0.3,0.3-0.3,0.8,0,1.1c0.3,0.3,0.8,0.3,1.2,0l12.3-12.2c0,0,0,0,0,0c0.2-0.2,0.2-0.4,0.2-0.6	C14,12.8,13.9,12.6,13.8,12.4z" class="st0"/></svg>