<svg xmlns="http://www.w3.org/2000/svg" xmlns:xlink="http://www.w3.org/1999/xlink" id="Layer_1" x="0" y="0" enable-background="new 0 0 16 16" version="1.1" viewBox="0 0 16 16" xml:space="preserve"><g><polygon fill="#333" points="0 16 .4 13.4 .7 10.8 3 13 5.2 15.3 2.6 15.6"/><polygon fill="#333" points="12.6 6.3 5.9 13 5.2 12.2 11.9 5.5 10.4 4 3.7 10.7 3 10 9.7 3.3 8.9 2.5 1.5 10 5.9 14.5 13.4 7"/><path fill="#333" d="M15.7,4.8c0.4-0.4,0.4-1.1,0-1.5l-3-3c-0.4-0.4-1.1-0.4-1.5,0c0,0,0,0.1-0.1,0.1l0,0L9.7,1.8l4.5,4.5 L15.7,4.8l-0.1,0.1C15.6,4.8,15.7,4.8,15.7,4.8z"/></g></svg>