<svg xmlns="http://www.w3.org/2000/svg" xmlns:xlink="http://www.w3.org/1999/xlink" x="0" y="0" version="1.1" viewBox="0 0 17.786 20" xml:space="preserve" style="enable-background:new 0 0 17.786 20"><g id="icon-audio-content-types-dark"><path style="fill:#333" d="M4.105,2.703v2.703v9.244c-0.222-0.036-0.449-0.055-0.684-0.055c-1.889,0-3.42,1.211-3.42,2.703 C0,18.791,1.531,20,3.42,20c1.772,0,3.212-1.068,3.386-2.432h0.035V4.865l8.209-1.622v8.703c-0.222-0.036-0.449-0.055-0.684-0.055 c-1.889,0-3.42,1.211-3.42,2.703c0,1.493,1.531,2.703,3.42,2.703c1.772,0,3.212-1.068,3.386-2.432h0.035V2.703V1.351V0L4.105,2.703 z"/></g></svg>