<svg xmlns="http://www.w3.org/2000/svg" xmlns:xlink="http://www.w3.org/1999/xlink" id="Layer_1" x="0" y="0" version="1.1" viewBox="0 0 16 16" xml:space="preserve" style="enable-background:new 0 0 16 16"><path style="fill:#0082c8" d="M15.545,13.167l-2.956-2.956c0.552-0.976,0.871-2.101,0.871-3.3c0-3.711-3.019-6.73-6.73-6.73	S0,3.2,0,6.911s3.019,6.731,6.73,6.731c1.388,0,2.679-0.423,3.751-1.146l2.867,2.868c0.303,0.303,0.701,0.455,1.099,0.455	c0.397,0,0.795-0.152,1.098-0.455C16.152,14.757,16.152,13.774,15.545,13.167z M2.071,6.911c0-2.569,2.09-4.659,4.659-4.659	c2.569,0,4.659,2.09,4.659,4.659c0,2.569-2.09,4.66-4.659,4.66C4.161,11.571,2.071,9.481,2.071,6.911z"/></svg>