<svg xmlns="http://www.w3.org/2000/svg" xmlns:xlink="http://www.w3.org/1999/xlink" id="Layer_2" x="0" y="0" version="1.1" viewBox="0 0 20 20" xml:space="preserve" style="enable-background:new 0 0 20 20"><style type="text/css">.st0{fill:#c2c2c2}.st1{fill:#ff5600}.st2{fill:#fff}</style><g><g><g><rect width="20" height="20" x="0" class="st0"/></g></g><g id="icon-warning"><g><g><path d="M17.8,15.4L15.4,11c-0.6-1.1-1.5-2.8-2.1-3.9L11,2.8c-0.6-1.1-1.5-1.1-2.1,0L6.6,7.1C6.1,8.2,5.1,10,4.6,11 l-2.3,4.4c-0.6,1.1-0.1,2,1.2,2h4.4c1.2,0,3.2,0,4.4,0h4.4C17.8,17.4,18.3,16.5,17.8,15.4z" class="st1"/></g><g><path d="M8.9,7.1h2.2l-0.3,5.5H9.2L8.9,7.1z M8.9,13.2h2.2v1.9H8.9V13.2z" class="st2"/></g></g></g></g></svg>