<svg xmlns="http://www.w3.org/2000/svg" xmlns:xlink="http://www.w3.org/1999/xlink" x="0" y="0" version="1.1" viewBox="0 0 18 18" xml:space="preserve" style="enable-background:new 0 0 18 18"><g id="menu_navigation_on_state"><polygon style="fill:#fff" points="16.25 13.5 16.25 9.25 16.25 9 16.25 8.25 9.5 8.25 9.5 4.5 11.25 4.5 11.25 0 6.75 0 6.75 4.5 8.5 4.5 8.5 8.25 1.75 8.25 1.75 9 1.75 9.25 1.75 13.5 0 13.5 0 18 4.5 18 4.5 13.5 2.75 13.5 2.75 9.25 8.5 9.25 8.5 13.5 6.75 13.5 6.75 18 11.25 18 11.25 13.5 9.5 13.5 9.5 9.25 15.25 9.25 15.25 13.5 13.5 13.5 13.5 18 18 18 18 13.5"/></g></svg>