<svg xmlns="http://www.w3.org/2000/svg" xmlns:xlink="http://www.w3.org/1999/xlink" id="Layer_2" x="0" y="0" version="1.1" viewBox="0 0 20 20" xml:space="preserve" style="enable-background:new 0 0 20 20"><style type="text/css">.st0{fill:#cccaca}</style><g><g><polygon points="18.9 20 17 20 17 18.9 17.9 18.9 17.9 17.9 18.9 17.9" class="st0"/></g><g><path d="M15.3,20h-2.4v-1.1h2.4V20z M11.1,20H8.7v-1.1h2.4V20z M6.9,20H4.5v-1.1h2.4V20z" class="st0"/></g><g><polygon points="2.8 20 .9 20 .9 17.9 1.9 17.9 1.9 18.9 2.8 18.9" class="st0"/></g><g><path d="M1.9,16h-1v-2.7h1V16z M1.9,11.3h-1V8.7h1V11.3z M1.9,6.7h-1V4h1V6.7z" class="st0"/></g><g><polygon points="1.9 2.1 .9 2.1 .9 0 2.8 0 2.8 1.1 1.9 1.1" class="st0"/></g><g><path d="M15.3,1.1h-2.4V0h2.4V1.1z M11.1,1.1H8.7V0h2.4V1.1z M6.9,1.1H4.5V0h2.4V1.1z" class="st0"/></g><g><polygon points="18.9 2.1 17.9 2.1 17.9 1.1 17 1.1 17 0 18.9 0" class="st0"/></g><g><path d="M18.9,16h-1v-2.7h1V16z M18.9,11.3h-1V8.7h1V11.3z M18.9,6.7h-1V4h1V6.7z" class="st0"/></g></g></svg>