<svg xmlns="http://www.w3.org/2000/svg" xmlns:xlink="http://www.w3.org/1999/xlink" id="Layer_1" x="0" y="0" version="1.1" viewBox="0 0 16 20" xml:space="preserve" style="enable-background:new 0 0 16 20"><style type="text/css">.st0{fill:#b5b5b5}.st1{fill:#6c6c6c}.st2{fill:#c5c8c5}.st3{fill:#c9c9c9}.st4{fill:#d3d3d3}</style><g><g><g><g><polygon points=".2 .4 11 .4 15.8 5.1 15.8 19.6 .2 19.6" class="st0"/></g><g><path d="M16,19.8H0V0.2h11L16,5.1V19.8z M0.3,19.5h15.3V5.2l-4.7-4.7H0.3V19.5z" class="st1"/></g></g><g><polygon points="15.6 5.1 11 .6 11 5.1" class="st2"/><path d="M10.9,5.2l0-4.9l5,4.9L10.9,5.2z M11.1,0.9l0,4.2l4.3,0L11.1,0.9z" class="st1"/></g><g><polygon points="15.5 5.4 10.8 5.4 10.8 .5 11 .5 11 5.2 15.5 5.2" class="st1"/></g><g><polygon points=".3 19.6 .3 .7 10.8 .7 10.8 .9 .5 .9 .5 19.4 15.3 19.4 15.3 5.5 15.5 5.5 15.5 19.6" class="st3"/></g></g><g><g id="XMLID_8_"><g><path d="M11.7,17.3c-0.2,0-0.4-0.1-0.6-0.2l-2.8-1.9c-0.2-0.1-0.5-0.1-0.7,0L4.9,17c-0.5,0.3-0.8,0.2-1,0.1 c-0.2-0.1-0.4-0.4-0.2-1l1-3.2c0.1-0.2,0-0.6-0.2-0.7l-2.7-2C1.3,9.9,1.3,9.5,1.4,9.4c0.1-0.2,0.2-0.5,0.8-0.5l3.4-0.1 c0.2,0,0.5-0.2,0.6-0.4l1.1-3.2C7.4,4.6,7.8,4.5,8,4.5c0,0,0,0,0,0c0.2,0,0.5,0.1,0.7,0.6l1.1,3.2c0.1,0.2,0.4,0.4,0.6,0.4 l3.4,0.1c0.6,0,0.8,0.3,0.8,0.5c0.1,0.2,0.1,0.5-0.4,0.9l-2.7,2c-0.2,0.1-0.3,0.5-0.2,0.7l1,3.2c0.2,0.6-0.1,0.8-0.2,1 C12,17.2,11.9,17.3,11.7,17.3z M2.9,9.8L5,11.5c0.5,0.4,0.8,1.2,0.6,1.8l-0.8,2.6L7,14.3c0.5-0.4,1.3-0.4,1.9,0l2.2,1.5 l-0.8-2.6c-0.2-0.6,0.1-1.4,0.6-1.8l2.2-1.6l-2.7-0.1c-0.7,0-1.3-0.5-1.5-1.1L8,6.1L7.1,8.7C6.9,9.3,6.2,9.8,5.6,9.8L2.9,9.8z" class="st4"/></g></g></g></g></svg>