<svg xmlns="http://www.w3.org/2000/svg" xmlns:xlink="http://www.w3.org/1999/xlink" x="0" y="0" version="1.1" viewBox="0 0 16.284 19.995" xml:space="preserve" style="enable-background:new 0 0 16.284 19.995"><g id="content_x5F_hidden"><g><g><g><polygon style="fill:#b5b5b5" points=".164 .159 11.202 .159 16.12 5.022 16.12 19.831 .164 19.831"/></g><g><path style="fill:#6c6c6c" d="M16.284,19.995H0v-20h11.27l5.015,4.959V19.995z M0.328,19.667h15.628V5.091l-4.822-4.768H0.328 V19.667z"/></g></g><g><polygon style="fill:#c5c8c5" points="15.929 5.013 11.211 .405 11.184 5.022"/><path style="fill:#6c6c6c" d="M11.074,5.132l0.029-4.985l5.093,4.975L11.074,5.132z M11.319,0.663l-0.025,4.25l4.367-0.008 L11.319,0.663z"/></g><g><polygon style="fill:#6c6c6c" points="15.792 5.296 10.984 5.296 10.984 .268 11.202 .268 11.202 5.077 15.792 5.077"/></g><g><polygon style="fill:#c9c9c9" points=".273 19.795 .273 .487 10.984 .487 10.984 .705 .492 .705 .492 19.576 15.592 19.558 15.574 5.378 15.792 5.377 15.811 19.776"/></g></g></g></svg>