<svg xmlns="http://www.w3.org/2000/svg" xmlns:xlink="http://www.w3.org/1999/xlink" id="Layer_1" x="0" y="0" enable-background="new 0 0 16 20" version="1.1" viewBox="0 0 16 20" xml:space="preserve"><g><g><rect width="2" height="7.8" x="5.4" y="3.1" fill="#FFF"/></g><g><rect width="7.8" height="2" x="2.5" y="5.9" fill="#FFF"/></g></g><g><polygon fill="#EB7833" points=".2 19.8 .2 .2 15.8 .2 15.8 14.3 13.3 16.7 10.1 19.8"/><path fill="#C13C0C" d="M15.5,0.5v13.7l-2.4,2.4l-3.1,3H0.5v-19H15.5 M16,0H0v20h10.2l3.2-3.1l2.5-2.5V0L16,0z"/></g><g><polygon fill="#EEC58B" points="10.5 14.6 15.4 14.6 13.3 16.7 10.5 19.4"/><path fill="#C13C0C" d="M14.8,14.9l-1.7,1.7l-2.4,2.3v-4H14.8 M16,14.4h-5.8V20l3.2-3.1L16,14.4L16,14.4z"/></g><g><rect width="1.7" height="6.4" x="7.2" y="5.8" fill="#FFF"/><rect width="6.4" height="1.7" x="4.8" y="8.2" fill="#FFF"/></g></svg>