<svg xmlns="http://www.w3.org/2000/svg" xmlns:xlink="http://www.w3.org/1999/xlink" id="Layer_1" x="0" y="0" version="1.1" viewBox="0 0 16 16" xml:space="preserve" style="enable-background:new 0 0 16 16"><style type="text/css">.st0{fill:#fff}.st1{fill:#25b7e0}</style><g><circle cx="8" cy="8" r="6.9" class="st0"/><g><path d="M13.7,2.3c-3.1-3.1-8.2-3.1-11.3,0c-3.1,3.1-3.1,8.2,0,11.3c3.1,3.1,8.2,3.1,11.3,0 C16.8,10.5,16.8,5.5,13.7,2.3z M7.9,1.4c0.8,0,1.5,0.7,1.5,1.5c0,0.9-0.7,1.5-1.5,1.5C7,4.5,6.3,3.8,6.3,2.9 C6.3,2.1,7,1.4,7.9,1.4z M10.3,12.6c0,0.3-0.2,0.5-0.5,0.5h-4c-0.3,0-0.5-0.2-0.5-0.5v-1c0-0.3,0.2-0.5,0.5-0.5h0.7V6.9H5.9 c-0.3,0-0.5-0.2-0.5-0.5v-1c0-0.3,0.2-0.5,0.5-0.5h2.8c0.3,0,0.5,0.2,0.5,0.5v5.7h0.7c0.3,0,0.5,0.2,0.5,0.5V12.6z" class="st0"/></g><g><path d="M13.7,2.3c-3.1-3.1-8.2-3.1-11.3,0c-3.1,3.1-3.1,8.2,0,11.3c3.1,3.1,8.2,3.1,11.3,0 C16.8,10.5,16.8,5.5,13.7,2.3z M7.9,1.4c0.8,0,1.5,0.7,1.5,1.5c0,0.9-0.7,1.5-1.5,1.5C7,4.5,6.3,3.8,6.3,2.9 C6.3,2.1,7,1.4,7.9,1.4z M10.3,12.6c0,0.3-0.2,0.5-0.5,0.5h-4c-0.3,0-0.5-0.2-0.5-0.5v-1c0-0.3,0.2-0.5,0.5-0.5h0.7V6.9H5.9 c-0.3,0-0.5-0.2-0.5-0.5v-1c0-0.3,0.2-0.5,0.5-0.5h2.8c0.3,0,0.5,0.2,0.5,0.5v5.7h0.7c0.3,0,0.5,0.2,0.5,0.5V12.6z" class="st1"/></g><circle cx="8" cy="8" r="6.9" class="st0"/><g><path d="M13.7,2.3c-3.1-3.1-8.2-3.1-11.3,0c-3.1,3.1-3.1,8.2,0,11.3c3.1,3.1,8.2,3.1,11.3,0 C16.8,10.5,16.8,5.5,13.7,2.3z M7.9,1.4c0.8,0,1.5,0.7,1.5,1.5c0,0.9-0.7,1.5-1.5,1.5C7,4.5,6.3,3.8,6.3,2.9 C6.3,2.1,7,1.4,7.9,1.4z M10.3,12.6c0,0.3-0.2,0.5-0.5,0.5h-4c-0.3,0-0.5-0.2-0.5-0.5v-1c0-0.3,0.2-0.5,0.5-0.5h0.7V6.9H5.9 c-0.3,0-0.5-0.2-0.5-0.5v-1c0-0.3,0.2-0.5,0.5-0.5h2.8c0.3,0,0.5,0.2,0.5,0.5v5.7h0.7c0.3,0,0.5,0.2,0.5,0.5V12.6z" class="st0"/></g><g><path d="M13.7,2.3c-3.1-3.1-8.2-3.1-11.3,0c-3.1,3.1-3.1,8.2,0,11.3c3.1,3.1,8.2,3.1,11.3,0 C16.8,10.5,16.8,5.5,13.7,2.3z M7.9,1.4c0.8,0,1.5,0.7,1.5,1.5c0,0.9-0.7,1.5-1.5,1.5C7,4.5,6.3,3.8,6.3,2.9 C6.3,2.1,7,1.4,7.9,1.4z M10.3,12.6c0,0.3-0.2,0.5-0.5,0.5h-4c-0.3,0-0.5-0.2-0.5-0.5v-1c0-0.3,0.2-0.5,0.5-0.5h0.7V6.9H5.9 c-0.3,0-0.5-0.2-0.5-0.5v-1c0-0.3,0.2-0.5,0.5-0.5h2.8c0.3,0,0.5,0.2,0.5,0.5v5.7h0.7c0.3,0,0.5,0.2,0.5,0.5V12.6z" class="st1"/></g></g></svg>