<svg xmlns="http://www.w3.org/2000/svg" xmlns:xlink="http://www.w3.org/1999/xlink" id="Layer_1" x="0" y="0" version="1.1" viewBox="0 0 16 16" xml:space="preserve" style="enable-background:new 0 0 16 16"><style type="text/css">.st0{fill:#333}</style><path d="M16,8c0-1.9-1.6-3.5-3.5-3.5c-1.4,0-2.6,0.8-3.2,2L2,6.5l-2,1l1,2l0.9-0.1l1.9,0.9l1-1l1.1,0.1l0,1l2,0l0-1	l1.4,0c0.6,1.2,1.8,2,3.2,2C14.4,11.5,16,9.9,16,8z M13.5,8.6c-0.3,0-0.6-0.3-0.6-0.6c0-0.3,0.3-0.6,0.6-0.6c0.3,0,0.6,0.3,0.6,0.6	C14.1,8.3,13.8,8.6,13.5,8.6z" class="st0"/></svg>