<svg xmlns="http://www.w3.org/2000/svg" xmlns:xlink="http://www.w3.org/1999/xlink" x="0" y="0" version="1.1" viewBox="0 0 15 16" xml:space="preserve" style="enable-background:new 0 0 15 16"><g id="icon-date"><g><rect style="fill:#333" width="2" height="2" x="5" y="6"/><rect style="fill:#333" width="2" height="2" x="8" y="6"/><rect style="fill:#333" width="2" height="2" x="11" y="6"/><rect style="fill:#333" width="2" height="2" x="2" y="9"/><rect style="fill:#333" width="2" height="2" x="5" y="9"/><rect style="fill:#333" width="2" height="2" x="8" y="9"/><rect style="fill:#333" width="2" height="2" x="11" y="9"/><rect style="fill:#333" width="2" height="2" x="2" y="12"/><rect style="fill:#333" width="2" height="2" x="5" y="12"/><rect style="fill:#333" width="2" height="2" x="8" y="12"/><path style="fill:#333" d="M13,2V0h-3v2H5V0H2v2H0v14h15V2H13z M11,1h1v2h-1V1z M3,1h1v2H3V1z M14,15H1V5h13V15z"/></g></g></svg>