<svg xmlns="http://www.w3.org/2000/svg" xmlns:xlink="http://www.w3.org/1999/xlink" id="Layer_1" x="0" y="0" version="1.1" viewBox="0 0 56.69 56.69" xml:space="preserve" style="enable-background:new 0 0 56.69 56.69"><g><path style="fill:#333" d="M45.592,0.914c2.147,0,3.876,1.728,3.876,3.876v4.889c0,2.146-1.729,3.874-3.876,3.874H31.879 c-0.357,0-0.656,0.298-0.656,0.657v4.292c0,0.358,0.298,0.657,0.656,0.657h17.589v3.219H28.004V14.21 c0-2.146,1.729-3.876,3.875-3.876h13.713c0.358,0,0.657-0.298,0.657-0.655V4.79c0-0.358-0.298-0.657-0.657-0.657H31.879 c-0.357,0-0.656,0.298-0.656,0.657v1.251h-3.219V4.79c0-2.148,1.729-3.876,3.875-3.876H45.592z"/><g><rect style="fill:#333" width="6.993" height="8.533" x="2.967"/><rect style="fill:#333" width="6.993" height="7.752" x="2.967" y="16.645"/><polygon style="fill:#333" points="25.692 28.659 25.692 39.3 9.96 39.3 9.96 32.509 2.967 32.509 2.967 46.167 9.96 46.167 9.96 46.052 25.692 46.052 25.692 56.693 53.726 56.693 53.726 28.659"/></g></g></svg>